<svg xmlns="http://www.w3.org/2000/svg" version="1.1" xmlns:xlink="http://www.w3.org/1999/xlink" xmlns:svgjs="http://svgjs.com/svgjs" width="1440" height="560" preserveAspectRatio="none" viewBox="0 0 1440 560"><g mask="url(&quot;#SvgjsMask1041&quot;)" fill="none"><rect width="1440" height="560" x="0" y="0" fill="rgba(245, 245, 245, 1)"></rect><path d="M0,400.143C73.856,391.699,104.396,299.849,165.416,257.393C223.204,217.186,303.637,213.859,347.21,158.565C395.36,97.464,430.682,16.546,415.303,-59.712C400.046,-135.368,324.94,-180.047,268.341,-232.518C217.725,-279.442,169.528,-332.531,102.642,-349.567C36.828,-366.33,-29.334,-340.57,-95.483,-325.185C-165.794,-308.831,-250.558,-312.592,-296.33,-256.771C-342.064,-200.996,-324.55,-118.7,-323.938,-46.575C-323.409,15.691,-315.318,75.679,-293.013,133.815C-269.475,195.164,-240.276,254.018,-191.651,298.215C-137.001,347.888,-73.374,408.532,0,400.143" fill="#e9e9e9"></path><path d="M1440 862.5029999999999C1506.875 869.481 1574.785 891.49 1637.568 867.422 1706.335 841.06 1779.068 795.033 1800.106 724.455 1821.0810000000001 654.086 1771.685 583.785 1742.152 516.557 1719.4180000000001 464.807 1682.801 424.259 1648.496 379.337 1611.592 331.012 1586.577 271.828 1533.126 242.84199999999998 1473.808 210.67399999999998 1401.477 189.42899999999997 1337.42 210.644 1273.761 231.728 1245.239 302.508 1200.946 352.85900000000004 1156.2559999999999 403.66200000000003 1079.434 440.101 1076.123 507.682 1072.779 575.937 1150.1390000000001 617.691 1185.094 676.412 1215.221 727.0219999999999 1219.695 794.053 1267.2649999999999 828.781 1315.627 864.087 1380.445 856.288 1440 862.5029999999999" fill="#ffffff"></path></g><defs><mask id="SvgjsMask1041"><rect width="1440" height="560" fill="#ffffff"></rect></mask></defs></svg>