<svg xmlns="http://www.w3.org/2000/svg" version="1.1" xmlns:xlink="http://www.w3.org/1999/xlink" xmlns:svgjs="http://svgjs.com/svgjs" width="1440" height="560" preserveAspectRatio="none" viewBox="0 0 1440 560"><g mask="url(&quot;#SvgjsMask1009&quot;)" fill="none"><rect width="1440" height="560" x="0" y="0" fill="rgba(245, 245, 245, 1)"></rect><path d="M0,345.23C67.152,346.272,133.201,331.268,191.761,298.386C252.775,264.126,308.365,217.727,339.059,154.843C370.157,91.132,371.456,18.201,362.872,-52.173C354.146,-123.711,338.488,-197.991,289.564,-250.909C241.241,-303.177,169.793,-329.191,99.095,-337.485C34.719,-345.038,-26.32,-318.786,-86.633,-295.044C-142.042,-273.233,-194.161,-246.745,-236.859,-205.239C-282.541,-160.832,-323.441,-110.419,-339.879,-48.867C-357.498,17.11,-359.944,89.311,-332.181,151.702C-304.304,214.348,-247.223,257.979,-187.976,292.496C-130.583,325.933,-66.415,344.2,0,345.23" fill="#e9e9e9"></path><path d="M1440 1189.627C1556.746 1192.4389999999999 1661.041 1118.1019999999999 1750.203 1042.685 1831.769 973.692 1871.01 873.867 1923.386 780.755 1981.058 678.229 2065.8869999999997 586.426 2072.907 469.002 2080.6 340.328 2048.268 203.497 1963.714 106.19900000000001 1879.199 8.947000000000003 1748.6480000000001-51.057000000000016 1619.811-52.379999999999995 1500.836-53.601999999999975 1419.895 69.40899999999999 1304.7640000000001 99.43 1183.834 130.96300000000002 1043.327 57.507000000000005 938.3489999999999 125.31700000000001 827.994 196.60000000000002 739.547 329.036 746.179 460.244 752.811 591.46 896.353 666.1 971.142 774.12 1030.109 859.287 1061.7269999999999 959.268 1139.253 1027.972 1226.192 1105.018 1323.868 1186.83 1440 1189.627" fill="#ffffff"></path></g><defs><mask id="SvgjsMask1009"><rect width="1440" height="560" fill="#ffffff"></rect></mask></defs></svg>