<?xml version="1.0" standalone="no"?><svg xmlns:xlink="http://www.w3.org/1999/xlink" xmlns="http://www.w3.org/2000/svg" viewBox="0 0 1000 625.0047234335204" preserveAspectRatio="xMaxYMax slice"><g transform="scale(0.7557493632811614)"><rect x="0" y="0" width="1323.2" height="827" fill="#ffffff"/><path d="M 578.9 165.4 A 82.7 82.7 0 0 1  661.6 82.7 L 578.9 165.4 A 82.7 82.7 0 0 0 661.6 82.7" fill="#fffdfd"/><path d="M 744.3 165.4 A 82.7 82.7 0 0 1  827 82.7 L 744.3 165.4 A 82.7 82.7 0 0 0 827 82.7" fill="#d1e0fa"/><path d="M 578.9 165.4 A 82.7 82.7 0 0 1  661.6 248.10000000000002 L 578.9 165.4 A 82.7 82.7 0 0 0 661.6 248.10000000000002" fill="#bfd4f8"/><path d="M 0 248.1 A 82.7 82.7 0 0 1  82.7 330.8 L 0 248.1 A 82.7 82.7 0 0 0 82.7 330.8" fill="#dee9fc"/><path d="M 165.4 330.8 A 82.7 82.7 0 0 1  248.10000000000002 248.1 L 165.4 330.8 A 82.7 82.7 0 0 0 248.10000000000002 248.1" fill="#fffcfd"/><path d="M 248.1 248.1 A 82.7 82.7 0 0 1  330.8 330.8 L 248.1 248.1 A 82.7 82.7 0 0 0 330.8 330.8" fill="#fffefe"/><path d="M 578.9 330.8 A 82.7 82.7 0 0 1  661.6 248.1 L 578.9 330.8 A 82.7 82.7 0 0 0 661.6 248.1" fill="#fbfcff"/><path d="M 661.6 248.1 A 82.7 82.7 0 0 1  744.3000000000001 330.8 L 661.6 248.1 A 82.7 82.7 0 0 0 744.3000000000001 330.8" fill="#fffefe"/><path d="M 1075.1 248.1 A 82.7 82.7 0 0 1  1157.8 330.8 L 1075.1 248.1 A 82.7 82.7 0 0 0 1157.8 330.8" fill="#fffbfc"/><path d="M 1157.8 330.8 A 82.7 82.7 0 0 1  1240.5 248.1 L 1157.8 330.8 A 82.7 82.7 0 0 0 1240.5 248.1" fill="#b9d0f8"/><path d="M 82.7 330.8 A 82.7 82.7 0 0 1  165.4 413.5 L 82.7 330.8 A 82.7 82.7 0 0 0 165.4 413.5" fill="#cddefa"/><path d="M 330.8 413.5 A 82.7 82.7 0 0 1  413.5 330.8 L 330.8 413.5 A 82.7 82.7 0 0 0 413.5 330.8" fill="#fffbfc"/><path d="M 496.2 330.8 A 82.7 82.7 0 0 1  578.9 413.5 L 496.2 330.8 A 82.7 82.7 0 0 0 578.9 413.5" fill="#e8f0fd"/><path d="M 661.6 413.5 A 82.7 82.7 0 0 1  744.3000000000001 330.8 L 661.6 413.5 A 82.7 82.7 0 0 0 744.3000000000001 330.8" fill="#ffffff"/><path d="M 744.3 413.5 A 82.7 82.7 0 0 1  827 330.8 L 744.3 413.5 A 82.7 82.7 0 0 0 827 330.8" fill="#ffffff"/><path d="M 909.7 330.8 A 82.7 82.7 0 0 1  992.4000000000001 413.5 L 909.7 330.8 A 82.7 82.7 0 0 0 992.4000000000001 413.5" fill="#c5d9f9"/><path d="M 1240.5 330.8 A 82.7 82.7 0 0 1  1323.2 413.5 L 1240.5 330.8 A 82.7 82.7 0 0 0 1323.2 413.5" fill="#dde8fc"/><path d="M 82.7 496.2 A 82.7 82.7 0 0 1  165.4 413.5 L 82.7 496.2 A 82.7 82.7 0 0 0 165.4 413.5" fill="#f2f6fe"/><path d="M 165.4 413.5 A 82.7 82.7 0 0 1  248.10000000000002 496.2 L 165.4 413.5 A 82.7 82.7 0 0 0 248.10000000000002 496.2" fill="#ffffff"/><path d="M 248.1 413.5 A 82.7 82.7 0 0 1  330.8 496.2 L 248.1 413.5 A 82.7 82.7 0 0 0 330.8 496.2" fill="#fffdfd"/><path d="M 330.8 413.5 A 82.7 82.7 0 0 1  413.5 496.2 L 330.8 413.5 A 82.7 82.7 0 0 0 413.5 496.2" fill="#fffbfc"/><path d="M 578.9 413.5 A 82.7 82.7 0 0 1  661.6 496.2 L 578.9 413.5 A 82.7 82.7 0 0 0 661.6 496.2" fill="#fffdfd"/><path d="M 661.6 496.2 A 82.7 82.7 0 0 1  744.3000000000001 413.5 L 661.6 496.2 A 82.7 82.7 0 0 0 744.3000000000001 413.5" fill="#bbd1f8"/><path d="M 744.3 413.5 A 82.7 82.7 0 0 1  827 496.2 L 744.3 413.5 A 82.7 82.7 0 0 0 827 496.2" fill="#fffdfe"/><path d="M 827 413.5 A 82.7 82.7 0 0 1  909.7 496.2 L 827 413.5 A 82.7 82.7 0 0 0 909.7 496.2" fill="#fffefe"/><path d="M 909.7 413.5 A 82.7 82.7 0 0 1  992.4000000000001 496.2 L 909.7 413.5 A 82.7 82.7 0 0 0 992.4000000000001 496.2" fill="#fffcfd"/><path d="M 1075.1 496.2 A 82.7 82.7 0 0 1  1157.8 413.5 L 1075.1 496.2 A 82.7 82.7 0 0 0 1157.8 413.5" fill="#fffcfc"/><path d="M 0 496.2 A 82.7 82.7 0 0 1  82.7 578.9 L 0 496.2 A 82.7 82.7 0 0 0 82.7 578.9" fill="#fffcfd"/><path d="M 82.7 496.2 A 82.7 82.7 0 0 1  165.4 578.9 L 82.7 496.2 A 82.7 82.7 0 0 0 165.4 578.9" fill="#fdfeff"/><path d="M 165.4 578.9 A 82.7 82.7 0 0 1  248.10000000000002 496.2 L 165.4 578.9 A 82.7 82.7 0 0 0 248.10000000000002 496.2" fill="#ffffff"/><path d="M 248.1 496.2 A 82.7 82.7 0 0 1  330.8 578.9 L 248.1 496.2 A 82.7 82.7 0 0 0 330.8 578.9" fill="#c8daf9"/><path d="M 330.8 496.2 A 82.7 82.7 0 0 1  413.5 578.9 L 330.8 496.2 A 82.7 82.7 0 0 0 413.5 578.9" fill="#ffffff"/><path d="M 413.5 578.9 A 82.7 82.7 0 0 1  496.2 496.2 L 413.5 578.9 A 82.7 82.7 0 0 0 496.2 496.2" fill="#fffdfe"/><path d="M 496.2 496.2 A 82.7 82.7 0 0 1  578.9 578.9 L 496.2 496.2 A 82.7 82.7 0 0 0 578.9 578.9" fill="#cbdcfa"/><path d="M 578.9 578.9 A 82.7 82.7 0 0 1  661.6 496.2 L 578.9 578.9 A 82.7 82.7 0 0 0 661.6 496.2" fill="#cbdcfa"/><path d="M 661.6 496.2 A 82.7 82.7 0 0 1  744.3000000000001 578.9 L 661.6 496.2 A 82.7 82.7 0 0 0 744.3000000000001 578.9" fill="#f6f9fe"/><path d="M 744.3 496.2 A 82.7 82.7 0 0 1  827 578.9 L 744.3 496.2 A 82.7 82.7 0 0 0 827 578.9" fill="#f6f9fe"/><path d="M 909.7 578.9 A 82.7 82.7 0 0 1  992.4000000000001 496.2 L 909.7 578.9 A 82.7 82.7 0 0 0 992.4000000000001 496.2" fill="#b9d1f8"/><path d="M 1075.1 578.9 A 82.7 82.7 0 0 1  1157.8 496.2 L 1075.1 578.9 A 82.7 82.7 0 0 0 1157.8 496.2" fill="#fffdfd"/><path d="M 1157.8 496.2 A 82.7 82.7 0 0 1  1240.5 578.9 L 1157.8 496.2 A 82.7 82.7 0 0 0 1240.5 578.9" fill="#fffcfc"/><path d="M 0 578.9 A 82.7 82.7 0 0 1  82.7 661.6 L 0 578.9 A 82.7 82.7 0 0 0 82.7 661.6" fill="#c9dbf9"/><path d="M 165.4 578.9 A 82.7 82.7 0 0 1  248.10000000000002 661.6 L 165.4 578.9 A 82.7 82.7 0 0 0 248.10000000000002 661.6" fill="#dbe7fb"/><path d="M 248.1 578.9 A 82.7 82.7 0 0 1  330.8 661.6 L 248.1 578.9 A 82.7 82.7 0 0 0 330.8 661.6" fill="#ffffff"/><path d="M 330.8 661.6 A 82.7 82.7 0 0 1  413.5 578.9 L 330.8 661.6 A 82.7 82.7 0 0 0 413.5 578.9" fill="#fffefe"/><path d="M 413.5 578.9 A 82.7 82.7 0 0 1  496.2 661.6 L 413.5 578.9 A 82.7 82.7 0 0 0 496.2 661.6" fill="#fffcfd"/><path d="M 496.2 578.9 A 82.7 82.7 0 0 1  578.9 661.6 L 496.2 578.9 A 82.7 82.7 0 0 0 578.9 661.6" fill="#fffbfc"/><path d="M 661.6 661.6 A 82.7 82.7 0 0 1  744.3000000000001 578.9 L 661.6 661.6 A 82.7 82.7 0 0 0 744.3000000000001 578.9" fill="#fffcfd"/><path d="M 744.3 661.6 A 82.7 82.7 0 0 1  827 578.9 L 744.3 661.6 A 82.7 82.7 0 0 0 827 578.9" fill="#fffdfd"/><path d="M 909.7 578.9 A 82.7 82.7 0 0 1  992.4000000000001 661.6 L 909.7 578.9 A 82.7 82.7 0 0 0 992.4000000000001 661.6" fill="#e7effd"/><path d="M 992.4 578.9 A 82.7 82.7 0 0 1  1075.1 661.6 L 992.4 578.9 A 82.7 82.7 0 0 0 1075.1 661.6" fill="#e2ecfc"/><path d="M 1075.1 661.6 A 82.7 82.7 0 0 1  1157.8 578.9 L 1075.1 661.6 A 82.7 82.7 0 0 0 1157.8 578.9" fill="#eaf1fd"/><path d="M 1157.8 661.6 A 82.7 82.7 0 0 1  1240.5 578.9 L 1157.8 661.6 A 82.7 82.7 0 0 0 1240.5 578.9" fill="#fffbfc"/><path d="M 1240.5 578.9 A 82.7 82.7 0 0 1  1323.2 661.6 L 1240.5 578.9 A 82.7 82.7 0 0 0 1323.2 661.6" fill="#fffcfc"/><path d="M 0 661.6 A 82.7 82.7 0 0 1  82.7 744.3000000000001 L 0 661.6 A 82.7 82.7 0 0 0 82.7 744.3000000000001" fill="#e4edfc"/><path d="M 82.7 744.3000000000001 A 82.7 82.7 0 0 1  165.4 661.6 L 82.7 744.3000000000001 A 82.7 82.7 0 0 0 165.4 661.6" fill="#edf3fd"/><path d="M 165.4 744.3000000000001 A 82.7 82.7 0 0 1  248.10000000000002 661.6 L 165.4 744.3000000000001 A 82.7 82.7 0 0 0 248.10000000000002 661.6" fill="#d7e5fb"/><path d="M 248.1 661.6 A 82.7 82.7 0 0 1  330.8 744.3000000000001 L 248.1 661.6 A 82.7 82.7 0 0 0 330.8 744.3000000000001" fill="#fffeff"/><path d="M 330.8 661.6 A 82.7 82.7 0 0 1  413.5 744.3000000000001 L 330.8 661.6 A 82.7 82.7 0 0 0 413.5 744.3000000000001" fill="#e1ebfc"/><path d="M 413.5 744.3000000000001 A 82.7 82.7 0 0 1  496.2 661.6 L 413.5 744.3000000000001 A 82.7 82.7 0 0 0 496.2 661.6" fill="#fffefe"/><path d="M 496.2 744.3000000000001 A 82.7 82.7 0 0 1  578.9 661.6 L 496.2 744.3000000000001 A 82.7 82.7 0 0 0 578.9 661.6" fill="#ffffff"/><path d="M 578.9 661.6 A 82.7 82.7 0 0 1  661.6 744.3000000000001 L 578.9 661.6 A 82.7 82.7 0 0 0 661.6 744.3000000000001" fill="#dae6fb"/><path d="M 661.6 661.6 A 82.7 82.7 0 0 1  744.3000000000001 744.3000000000001 L 661.6 661.6 A 82.7 82.7 0 0 0 744.3000000000001 744.3000000000001" fill="#cfdffa"/><path d="M 744.3 744.3000000000001 A 82.7 82.7 0 0 1  827 661.6 L 744.3 744.3000000000001 A 82.7 82.7 0 0 0 827 661.6" fill="#e8f0fd"/><path d="M 827 744.3000000000001 A 82.7 82.7 0 0 1  909.7 661.6 L 827 744.3000000000001 A 82.7 82.7 0 0 0 909.7 661.6" fill="#fffcfd"/><path d="M 909.7 744.3000000000001 A 82.7 82.7 0 0 1  992.4000000000001 661.6 L 909.7 744.3000000000001 A 82.7 82.7 0 0 0 992.4000000000001 661.6" fill="#e8f0fd"/><path d="M 992.4 744.3000000000001 A 82.7 82.7 0 0 1  1075.1 661.6 L 992.4 744.3000000000001 A 82.7 82.7 0 0 0 1075.1 661.6" fill="#d6e4fb"/><path d="M 1075.1 744.3000000000001 A 82.7 82.7 0 0 1  1157.8 661.6 L 1075.1 744.3000000000001 A 82.7 82.7 0 0 0 1157.8 661.6" fill="#fffdfe"/><path d="M 1157.8 744.3000000000001 A 82.7 82.7 0 0 1  1240.5 661.6 L 1157.8 744.3000000000001 A 82.7 82.7 0 0 0 1240.5 661.6" fill="#b9d0f8"/><path d="M 1240.5 661.6 A 82.7 82.7 0 0 1  1323.2 744.3000000000001 L 1240.5 661.6 A 82.7 82.7 0 0 0 1323.2 744.3000000000001" fill="#b3ccf7"/><path d="M 0 744.3 A 82.7 82.7 0 0 1  82.7 827 L 0 744.3 A 82.7 82.7 0 0 0 82.7 827" fill="#c7daf9"/><path d="M 82.7 744.3 A 82.7 82.7 0 0 1  165.4 827 L 82.7 744.3 A 82.7 82.7 0 0 0 165.4 827" fill="#fffefe"/><path d="M 165.4 744.3 A 82.7 82.7 0 0 1  248.10000000000002 827 L 165.4 744.3 A 82.7 82.7 0 0 0 248.10000000000002 827" fill="#c5d8f9"/><path d="M 248.1 827 A 82.7 82.7 0 0 1  330.8 744.3 L 248.1 827 A 82.7 82.7 0 0 0 330.8 744.3" fill="#f5f8fe"/><path d="M 330.8 827 A 82.7 82.7 0 0 1  413.5 744.3 L 330.8 827 A 82.7 82.7 0 0 0 413.5 744.3" fill="#fffbfc"/><path d="M 413.5 744.3 A 82.7 82.7 0 0 1  496.2 827 L 413.5 744.3 A 82.7 82.7 0 0 0 496.2 827" fill="#fffefe"/><path d="M 496.2 744.3 A 82.7 82.7 0 0 1  578.9 827 L 496.2 744.3 A 82.7 82.7 0 0 0 578.9 827" fill="#ffffff"/><path d="M 578.9 744.3 A 82.7 82.7 0 0 1  661.6 827 L 578.9 744.3 A 82.7 82.7 0 0 0 661.6 827" fill="#fffeff"/><path d="M 661.6 827 A 82.7 82.7 0 0 1  744.3000000000001 744.3 L 661.6 827 A 82.7 82.7 0 0 0 744.3000000000001 744.3" fill="#fffbfc"/><path d="M 744.3 827 A 82.7 82.7 0 0 1  827 744.3 L 744.3 827 A 82.7 82.7 0 0 0 827 744.3" fill="#d5e3fb"/><path d="M 827 744.3 A 82.7 82.7 0 0 1  909.7 827 L 827 744.3 A 82.7 82.7 0 0 0 909.7 827" fill="#b5cef7"/><path d="M 909.7 744.3 A 82.7 82.7 0 0 1  992.4000000000001 827 L 909.7 744.3 A 82.7 82.7 0 0 0 992.4000000000001 827" fill="#fffefe"/><path d="M 992.4 744.3 A 82.7 82.7 0 0 1  1075.1 827 L 992.4 744.3 A 82.7 82.7 0 0 0 1075.1 827" fill="#fffcfd"/><path d="M 1075.1 827 A 82.7 82.7 0 0 1  1157.8 744.3 L 1075.1 827 A 82.7 82.7 0 0 0 1157.8 744.3" fill="#fffefe"/><path d="M 1157.8 744.3 A 82.7 82.7 0 0 1  1240.5 827 L 1157.8 744.3 A 82.7 82.7 0 0 0 1240.5 827" fill="#dee9fc"/><path d="M 1240.5 744.3 A 82.7 82.7 0 0 1  1323.2 827 L 1240.5 744.3 A 82.7 82.7 0 0 0 1323.2 827" fill="#fffcfd"/></g></svg>